<svg xmlns="http://www.w3.org/2000/svg" viewBox="0 0 586.05 121.9"><defs><style>.cls-1{fill:#fff;}</style></defs><g id="Capa_2" data-name="Capa 2"><g id="Capa_1-2" data-name="Capa 1"><path class="cls-1" d="M9.6,11.07c-4.19,1.06-6.82,2.91-8.25,6C.21,19.61,0,21.82,0,32.84,0,46.92.5,49.06,4.48,52c1.78,1.35,3.06,1.5,10.67,1.5,4.77,0,9.53-.22,10.67-.57l1.92-.5V33.9h-5V48.63l-4.63.5c-5.54.57-9.82-.42-11.38-2.63s-1.57-25.75,0-28C8.53,16,12.22,15.21,19.62,15.7l6.62.5.5-1.85a3.74,3.74,0,0,0,.07-2.21c-.57-.57-9-1.7-12.23-1.63A32.31,32.31,0,0,0,9.6,11.07Z"/><path class="cls-1" d="M152.05,11.36c-8.18,2.34-9.39,4.55-9.67,18.56-.35,12.95.07,16.15,2.56,19,2.85,3.42,6.69,4.9,12.95,4.9,8.61,0,13.23-3,15-9.46.42-1.7.64-7.33.5-13.59-.29-12.8-1.14-15.36-6.33-18C163.15,10.72,156.53,10.15,152.05,11.36Zm11.1,5.05c4.34,1.85,4.7,2.91,4.7,16.15,0,10.67-.14,12-1.42,13.59-2.06,2.63-5.05,3.62-10,3.27-3.84-.29-4.7-.57-6.4-2.56l-2.06-2.27v-12c0-13.15.35-14.36,4.55-16.22A15.62,15.62,0,0,1,163.15,16.41Z"/><path class="cls-1" d="M35.56,32.12v21h5V38.88H51.92l4.77,7.46,4.83,7.46h6l-5-7.46a73.52,73.52,0,0,1-5-8.1c0-.35.64-.86,1.35-1.14,2.91-.93,4-3.84,4-11.38,0-8.82-.86-11.16-4.9-13.15-2.56-1.21-4.41-1.42-12.73-1.42H35.56v21Zm21-14.29c.71,1,1,3.42,1,7.61,0,8.1-.42,8.47-10.1,8.47h-7V16l7.54.29C54.54,16.48,55.75,16.69,56.61,17.83Z"/><path class="cls-1" d="M71.11,28.28c0,19.28.29,20.7,4.83,23.54,2.06,1.28,3.91,1.63,9,1.85,5.62.22,6.75.07,9.53-1.42,6-3.13,6.11-3.2,6.33-23.4l.22-17.71h-5L95.86,28c-.22,18.49-.42,19.28-4.48,21-2.85,1.21-9,1.14-11.31-.14-3.7-1.92-4-3.49-4-21.34V11.15h-5V28.28Z"/><path class="cls-1" d="M108.81,32.41v21.4h5.7V39.09l7.33-.35c12.73-.64,14.72-2.42,14.72-13.72,0-12-1.63-13.37-17.21-13.72L108.82,11v21.4Zm21.05-14.8c1.06,1.21,1.35,2.63,1.35,7.46,0,8-.35,8.39-9.6,8.67L114.5,34V16.11h7C127.72,16.12,128.65,16.26,129.86,17.61Z"/><path class="cls-1" d="M147.22,68.18c-3.55,1-6.4,3.27-7.54,6-1.42,3.49-1.42,27.31.07,30.09,3.06,6,12.16,8.54,23.47,6.62l2.85-.5-.57-3.7-.64-3.77h-6.33c-6.11,0-8.89-.64-10-2.42-.29-.42-.57-5.62-.57-11.59,0-13.3-.22-13,10-13h6.9l.64-3.77.57-3.7-2.85-.5C159,67.18,150.06,67.33,147.22,68.18Z"/><path class="cls-1" d="M2.13,72.3v4.26H32.71V68H2.13Z"/><path class="cls-1" d="M39.11,89.37v21.34h9.26V68H39.11Z"/><path class="cls-1" d="M66.14,68.39c0,.29-11.45,38.48-12.44,41.39-.22.71,1,.93,4.55.93h4.9l1-4.13,1-4.06,7.54-.22,7.54-.22,1,4.13,1,4.13,4.77.22c2.63.14,4.77-.07,4.77-.35s-2.85-9.82-6.26-21.2L79.14,68.38l-6.47-.22C69.05,68.11,66.14,68.18,66.14,68.39ZM75,84.25c1.14,3.77,2.21,7.46,2.42,8.1.29,1.14-.29,1.28-4.83,1.28-4.13,0-5-.22-4.77-1,.22-.57,1.28-4.26,2.42-8.18s2.14-7.19,2.34-7.19S73.82,80.41,75,84.25Z"/><path class="cls-1" d="M96.72,89.37v21.34H106l.07-14.08v-14l7.11,14,7,14.08h11.38V68H123V82.69c0,8-.22,14.43-.5,14.23s-3.62-6.75-7.33-14.58L108.46,68H96.72V89.37Z"/><path class="cls-1" d="M182.13,70.31c-.35,1.28-3.13,10.31-6.11,20.12s-5.54,18.35-5.76,19c-.35,1.14.22,1.28,4.48,1.28h4.9l1-4.13,1.06-4.06,7.61-.22,7.61-.22.78,3.06c.42,1.7.93,3.62,1.14,4.26.29,1.06,1.21,1.28,5.27,1.28h4.83L205.52,99.8c-1.92-5.91-4.9-15.51-6.75-21.34L195.5,68H182.91ZM192,85.18c1.21,4.19,2.21,7.83,2.21,8s-2.21.42-5,.42a22.71,22.71,0,0,1-5-.29c0-.29,4.13-13.79,4.63-15.29S189.53,77,192,85.18Z"/><path class="cls-1" d="M213.35,72.3v4.26h9.46c11.74,0,12.59.42,12.59,6s-.5,5.69-12.23,6l-9.82.29v21.9h7.82V96.49h9.88l3.77,7.11,3.77,7.11h4.83c2.63,0,4.77-.14,4.77-.35s-1.92-3.77-4.19-8l-4.19-7.61,2-2c2.91-2.85,3.77-6.26,3.42-12.8-.35-6.33-1.57-8.67-5.62-10.67-2-1.06-4.41-1.28-14.3-1.28h-12V72.3Z"/><path class="cls-1" d="M2.13,97.91v12.8h9.26V93.63h19.9V85.11H2.13Z"/><rect class="cls-1" x="276" width="6" height="121.9"/><path class="cls-1" d="M336.07,49.86,333.58,42H321.09l-2.49,7.87h-7.83l12.1-33.19h8.88L343.9,49.86Zm-4.22-13.75-2.49-7.68c-.15-.52-.36-1.18-.62-2s-.51-1.63-.77-2.47-.47-1.56-.62-2.18c-.16.62-.37,1.38-.65,2.3s-.53,1.77-.78,2.58l-.54,1.75-2.46,7.68Z"/><path class="cls-1" d="M368.45,40.68A8.83,8.83,0,0,1,367,45.79a9.34,9.34,0,0,1-4.3,3.35,18,18,0,0,1-6.86,1.17,26.43,26.43,0,0,1-3.48-.22,22.4,22.4,0,0,1-3.26-.67,19.09,19.09,0,0,1-3-1.1V41.81c1.63.7,3.32,1.32,5.07,1.88a17,17,0,0,0,5.2.84,7.39,7.39,0,0,0,2.87-.46,3.24,3.24,0,0,0,1.59-1.24,3.34,3.34,0,0,0,.49-1.81,2.89,2.89,0,0,0-.87-2.12,9.25,9.25,0,0,0-2.38-1.66c-1-.51-2.14-1.06-3.41-1.65-.79-.36-1.66-.8-2.6-1.32a14.69,14.69,0,0,1-2.67-1.91,9,9,0,0,1-2.08-2.75,8.58,8.58,0,0,1-.81-3.88,8.48,8.48,0,0,1,5.43-8.28,15.54,15.54,0,0,1,6.18-1.12,21.2,21.2,0,0,1,5.1.6,32.74,32.74,0,0,1,5.07,1.73l-2.34,5.45a41.87,41.87,0,0,0-4.24-1.44,14.55,14.55,0,0,0-3.83-.51,5.79,5.79,0,0,0-2.32.42,3.18,3.18,0,0,0-1.45,1.18,3.12,3.12,0,0,0-.49,1.75,2.87,2.87,0,0,0,.71,2A7.72,7.72,0,0,0,356.48,29q1.44.74,3.6,1.74a28.88,28.88,0,0,1,4.49,2.5,9.43,9.43,0,0,1,2.87,3A8.64,8.64,0,0,1,368.45,40.68Z"/><path class="cls-1" d="M374.66,49.86V16.8h7.27V49.86Z"/><path class="cls-1" d="M410.79,40.68a8.83,8.83,0,0,1-1.48,5.11,9.34,9.34,0,0,1-4.3,3.35,17.92,17.92,0,0,1-6.86,1.17,26.54,26.54,0,0,1-3.48-.22,22.4,22.4,0,0,1-3.26-.67,18.61,18.61,0,0,1-3-1.1V41.81c1.62.7,3.31,1.32,5.06,1.88a17,17,0,0,0,5.21.84,7.46,7.46,0,0,0,2.87-.46,3.21,3.21,0,0,0,1.58-1.24,3.34,3.34,0,0,0,.49-1.81,2.92,2.92,0,0,0-.86-2.12,9.43,9.43,0,0,0-2.38-1.66q-1.51-.77-3.42-1.65c-.79-.36-1.66-.8-2.6-1.32a14.69,14.69,0,0,1-2.67-1.91,9.12,9.12,0,0,1-2.08-2.75,8.72,8.72,0,0,1-.8-3.88,8.45,8.45,0,0,1,5.42-8.28,15.57,15.57,0,0,1,6.18-1.12,21.2,21.2,0,0,1,5.1.6,32.84,32.84,0,0,1,5.08,1.73l-2.35,5.45A41.87,41.87,0,0,0,404,22.67a14.53,14.53,0,0,0-3.82-.51,5.76,5.76,0,0,0-2.32.42,3.16,3.16,0,0,0-1.46,1.18,3.12,3.12,0,0,0-.49,1.75,2.91,2.91,0,0,0,.71,2A7.72,7.72,0,0,0,398.82,29q1.44.74,3.6,1.74a28.42,28.42,0,0,1,4.49,2.5,9.43,9.43,0,0,1,2.87,3A8.64,8.64,0,0,1,410.79,40.68Z"/><path class="cls-1" d="M430.23,49.86H423V22.64h-9.31V16.8h25.88v5.84h-9.3Z"/><path class="cls-1" d="M464.55,49.86H444.81V16.8h19.74v5.75H452.08V29.8h11.6v5.75h-11.6v8.52h12.47Z"/><path class="cls-1" d="M502.11,49.86h-9.24L478,24.85h-.21c.06,1,.12,2.09.17,3.15s.09,2.1.14,3.15.09,2.1.14,3.15V49.86h-6.5V16.8h9.17l14.89,24.76h.16c0-1-.07-2-.12-3.05s-.09-2-.12-3-.08-2-.11-3V16.8h6.54Z"/><path class="cls-1" d="M525.3,22.16a8.34,8.34,0,0,0-3.69.78,7.32,7.32,0,0,0-2.7,2.25,10.39,10.39,0,0,0-1.65,3.55,17.77,17.77,0,0,0-.56,4.68,17.55,17.55,0,0,0,.9,6,7.54,7.54,0,0,0,2.8,3.78,8.46,8.46,0,0,0,4.9,1.3,19.81,19.81,0,0,0,4.18-.45A40.44,40.44,0,0,0,534,42.74v5.88a23,23,0,0,1-4.47,1.3,28.57,28.57,0,0,1-5,.39,16.29,16.29,0,0,1-8.71-2.11,12.68,12.68,0,0,1-5-5.92,22.26,22.26,0,0,1-1.64-8.9,21.49,21.49,0,0,1,1-6.88,15.34,15.34,0,0,1,3.1-5.4,13.71,13.71,0,0,1,5-3.53,17.83,17.83,0,0,1,6.89-1.24,21.92,21.92,0,0,1,5.12.62,25.7,25.7,0,0,1,4.91,1.71L533,24.36a37.08,37.08,0,0,0-3.87-1.54A11.86,11.86,0,0,0,525.3,22.16Z"/><path class="cls-1" d="M541.34,49.86V16.8h7.26V49.86Z"/><path class="cls-1" d="M578.22,49.86,575.73,42h-12.5l-2.48,7.87h-7.83L565,16.67h8.88l12.15,33.19ZM574,36.11l-2.49-7.68c-.16-.52-.36-1.18-.62-2s-.52-1.63-.77-2.47-.47-1.56-.63-2.18c-.15.62-.37,1.38-.64,2.3l-.79,2.58-.54,1.75-2.46,7.68Z"/><path class="cls-1" d="M327.35,103.26h-7.27V76h-9.31V70.2h25.89V76h-9.31Z"/><path class="cls-1" d="M361.67,103.26H341.93V70.2h19.74v5.74H349.2V83.2h11.6v5.74H349.2v8.53h12.47ZM361.27,60v.47c-.45.43-1,1-1.78,1.56S358,63.3,357.12,64s-1.67,1.31-2.48,1.92-1.53,1.12-2.14,1.53h-4.75v-.61c.51-.58,1.11-1.26,1.79-2s1.35-1.61,2-2.45,1.23-1.62,1.69-2.31Z"/><path class="cls-1" d="M383.38,75.56a8.34,8.34,0,0,0-3.69.78,7.32,7.32,0,0,0-2.7,2.25,10.69,10.69,0,0,0-1.65,3.55,18.14,18.14,0,0,0-.56,4.68,17.55,17.55,0,0,0,.9,6,7.59,7.59,0,0,0,2.8,3.78,8.56,8.56,0,0,0,4.9,1.3,19.34,19.34,0,0,0,4.19-.46,40.44,40.44,0,0,0,4.56-1.29V102a22.56,22.56,0,0,1-4.48,1.3,27.56,27.56,0,0,1-4.95.4A16.31,16.31,0,0,1,374,101.6a12.7,12.7,0,0,1-5.05-5.93,22.4,22.4,0,0,1-1.64-8.9,21.43,21.43,0,0,1,1.05-6.87,15.63,15.63,0,0,1,3.1-5.41,13.69,13.69,0,0,1,5-3.52,17.86,17.86,0,0,1,6.89-1.25,22,22,0,0,1,5.13.62,27.42,27.42,0,0,1,4.91,1.71l-2.35,5.7a39.43,39.43,0,0,0-3.87-1.54A12.07,12.07,0,0,0,383.38,75.56Z"/><path class="cls-1" d="M429.83,103.26h-9.24l-14.91-25h-.21c.06,1,.12,2.09.16,3.14s.1,2.11.14,3.16.1,2.1.14,3.15v15.56h-6.49V70.2h9.17L423.47,95h.17c0-1-.07-2-.12-3s-.09-2-.13-3-.07-2-.1-3V70.2h6.54Z"/><path class="cls-1" d="M438.46,103.26V70.2h7.26v33.06Z"/><path class="cls-1" d="M468.91,75.56a8.34,8.34,0,0,0-3.69.78,7.32,7.32,0,0,0-2.7,2.25,10.69,10.69,0,0,0-1.65,3.55,18.14,18.14,0,0,0-.56,4.68,17.55,17.55,0,0,0,.9,6,7.59,7.59,0,0,0,2.8,3.78,8.56,8.56,0,0,0,4.9,1.3,19.34,19.34,0,0,0,4.19-.46,40.44,40.44,0,0,0,4.56-1.29V102a22.56,22.56,0,0,1-4.48,1.3,27.56,27.56,0,0,1-4.95.4,16.31,16.31,0,0,1-8.71-2.11,12.7,12.7,0,0,1-5-5.93,22.4,22.4,0,0,1-1.64-8.9,21.43,21.43,0,0,1,1.05-6.87,15.63,15.63,0,0,1,3.1-5.41A13.69,13.69,0,0,1,462,71a17.86,17.86,0,0,1,6.89-1.25,22,22,0,0,1,5.13.62A27.42,27.42,0,0,1,479,72.05l-2.35,5.7a39.43,39.43,0,0,0-3.87-1.54A12.07,12.07,0,0,0,468.91,75.56Z"/><path class="cls-1" d="M505.93,103.26l-2.48-7.87H491l-2.48,7.87h-7.83l12.09-33.2h8.89l12.14,33.2Zm-4.22-13.75-2.48-7.69c-.16-.51-.37-1.17-.62-2s-.52-1.63-.78-2.46-.46-1.57-.62-2.18c-.15.61-.37,1.38-.64,2.29l-.79,2.59-.54,1.74-2.46,7.69Z"/></g></g></svg>